<svg width="70" height="70" viewBox="0 0 70 70" fill="none" xmlns="http://www.w3.org/2000/svg">
<rect width="70" height="70" rx="25" fill="white"/>
<path d="M11.5422 48.7549C12.6893 50.7342 14.101 52.5772 15.7617 54.2383C20.7672 59.2435 27.4217 62 34.5 62C41.5787 62 48.2332 59.2435 53.2383 54.2383C54.8995 52.5772 56.3107 50.7342 57.4578 48.7549C59.7679 44.7691 61 40.2298 61 35.5C61 30.7702 59.7679 26.2309 57.4578 22.2451C56.3107 20.2658 54.899 18.4223 53.2383 16.7617C48.2332 11.7565 41.5787 9 34.5 9C27.4217 9 20.7668 11.7565 15.7617 16.7617C14.1005 18.4223 12.6889 20.2658 11.5422 22.2451C9.23208 26.2309 8 30.7706 8 35.5C8 40.2294 9.23208 44.7691 11.5422 48.7549ZM27.7371 35.5C27.7371 34.2691 28.0691 33.1155 28.6461 32.12C29.8171 30.0998 32.0015 28.7367 34.5 28.7367C36.9985 28.7367 39.1829 30.0998 40.3543 32.12C40.9309 33.1151 41.2633 34.2691 41.2633 35.5C41.2633 36.7309 40.9309 37.8845 40.3543 38.8796C39.1833 40.9002 36.9985 42.2629 34.5 42.2629C32.0015 42.2629 29.8171 40.9002 28.6457 38.8796C28.0691 37.8845 27.7371 36.7309 27.7371 35.5Z" fill="#FF8398"/>
<path d="M34.5 52.1312V62C41.5787 62 48.2332 59.2435 53.2383 54.2383C54.8995 52.5772 56.3107 50.7342 57.4578 48.7549L48.9053 43.8168C46.0295 48.7872 40.6555 52.1312 34.5 52.1312Z" fill="#54E360"/>
<path d="M51.1317 35.5C51.1317 38.5299 50.3209 41.3705 48.9053 43.8168L57.4578 48.7549C59.7679 44.7691 61 40.2298 61 35.5C61 30.7702 59.7679 26.2309 57.4578 22.2451L48.9053 27.1828C50.3209 29.6295 51.1317 32.4701 51.1317 35.5Z" fill="#008ADF"/>
<path d="M20.0947 43.8168L11.5421 48.7549C12.6893 50.7342 14.1009 52.5772 15.7616 54.2383C20.7671 59.2435 27.4217 62 34.4999 62V52.1312C28.3444 52.1312 22.9705 48.7872 20.0947 43.8168Z" fill="#FFD400"/>
<path d="M48.9053 27.1828L57.4578 22.2451C56.3107 20.2658 54.899 18.4223 53.2383 16.7617C48.2332 11.7565 41.5787 9 34.5 9V18.8684C40.6555 18.8684 46.0295 22.2128 48.9053 27.1828Z" fill="#0065A3"/>
<path d="M11.5422 48.7549L20.0947 43.8168C18.6791 41.3705 17.8688 38.5299 17.8688 35.5C17.8688 32.4701 18.6791 29.6295 20.0947 27.1832L11.5422 22.2451C9.23208 26.2309 8 30.7706 8 35.5C8 40.2294 9.23208 44.7691 11.5422 48.7549Z" fill="#FF9100"/>
<path d="M34.4999 18.8684V9C27.4217 9 20.7667 11.7565 15.7616 16.7617C14.1005 18.4223 12.6889 20.2658 11.5421 22.2451L20.0947 27.1832C22.9705 22.2128 28.3444 18.8684 34.4999 18.8684Z" fill="#FF4949"/>
<path d="M41.2634 35.5C41.2634 36.7309 40.931 37.8845 40.3544 38.8796L48.9053 43.8168C50.321 41.3705 51.1317 38.5299 51.1317 35.5C51.1317 32.4697 50.321 29.6295 48.9053 27.1828L40.3544 32.12C40.931 33.1151 41.2634 34.2691 41.2634 35.5Z" fill="#0065A3"/>
<path d="M40.3543 32.12L48.9053 27.1832C46.0295 22.2128 40.6555 18.8684 34.5 18.8684V28.7367C36.9985 28.7367 39.1829 30.0998 40.3543 32.12Z" fill="#005183"/>
<path d="M34.5 42.2629V52.1312C40.6555 52.1312 46.0295 48.7872 48.9053 43.8168L40.3543 38.88C39.1833 40.9002 36.9985 42.2629 34.5 42.2629Z" fill="#00AB5E"/>
<path d="M34.5 52.1312V42.2629C32.0015 42.2629 29.8171 40.9002 28.6457 38.8796L20.0947 43.8168C22.9705 48.7872 28.3444 52.1312 34.5 52.1312Z" fill="#FF9F04"/>
<path d="M27.7371 35.5C27.7371 34.2691 28.0691 33.1155 28.6461 32.12L20.0948 27.1832C18.6791 29.6295 17.8688 32.4701 17.8688 35.5C17.8688 38.5299 18.6791 41.3705 20.0948 43.8168L28.6457 38.8796C28.0691 37.8845 27.7371 36.7309 27.7371 35.5Z" fill="#FF4B00"/>
<path d="M34.5 28.7367V18.8684C28.3444 18.8684 22.9705 22.2128 20.0947 27.1832L28.6461 32.12C29.8171 30.0998 32.0015 28.7367 34.5 28.7367Z" fill="#E80048"/>
</svg>
