<svg width="81" height="81" viewBox="0 0 81 81" fill="none" xmlns="http://www.w3.org/2000/svg">
<g clip-path="url(#clip0)">
<path d="M69.139 11.8599C53.3216 -3.95219 27.679 -3.9575 11.8616 11.8599C-3.95581 27.6737 -3.95581 53.3164 11.8616 69.1356C27.6754 84.953 53.3216 84.953 69.139 69.1356C84.9511 53.3182 84.9511 27.6755 69.139 11.8599ZM35.4515 56.0552C35.4515 58.6349 33.3598 60.723 30.782 60.723C28.2041 60.723 26.1142 58.6349 26.1142 56.0552V24.9438C26.1142 22.3677 28.2041 20.276 30.782 20.276C33.3598 20.276 35.4515 22.3677 35.4515 24.9438V56.0552ZM54.8829 56.0552C54.8829 58.6349 52.7912 60.723 50.2151 60.723C47.639 60.723 45.5473 58.6349 45.5473 56.0552V24.9438C45.5473 22.3677 47.639 20.276 50.2151 20.276C52.7912 20.276 54.8829 22.3677 54.8829 24.9438V56.0552Z" fill="white"/>
</g>
<defs>
<clipPath id="clip0">
<rect width="81" height="81" fill="white"/>
</clipPath>
</defs>
</svg>
